<?xml version="1.0" encoding="utf-8" ?>
<svg xmlns="http://www.w3.org/2000/svg" xmlns:xlink="http://www.w3.org/1999/xlink" width="1024" height="1024">
	<path fill="#F04343" transform="scale(1.6 1.6)" d="M249.168 399.773C265.16 426.584 285.938 445.402 319.79 444.869L319.79 556.229C236.665 556.714 156.283 502.081 141.679 417.038C140.775 411.771 140.309 406.407 138.972 401.225C149.389 400.799 159.946 400.956 170.378 400.906L234.828 400.527C239.615 400.459 244.434 400.56 249.168 399.773Z"/>
	<path fill="#EDB508" transform="scale(1.6 1.6)" d="M391.434 399.773C396.453 400.554 406.911 399.746 412.575 399.762L475.16 399.784C483.078 399.786 493.742 398.868 501.282 399.773C499.817 409.556 498.867 419.32 496.452 428.942C477.996 502.46 411.011 549.031 337.673 555.377C331.985 555.869 325.44 556.914 319.79 556.229L319.79 444.869C344.5 444.373 367.648 432.56 382.816 412.928C385.978 408.835 388.272 404.28 391.222 400.071L391.434 399.773Z"/>
	<path fill="#F04343" transform="scale(1.6 1.6)" d="M399.668 192.469L480.13 192.461C491.041 192.466 501.645 192.078 501.427 206C500.427 269.869 500.399 335.879 501.282 399.773C493.742 398.868 483.078 399.786 475.16 399.784L412.575 399.762C406.911 399.746 396.453 400.554 391.434 399.773C399.193 381.978 399.684 367.794 399.682 348.744L399.641 203.757C399.619 200.165 398.995 195.962 399.668 192.469Z"/>
	<path fill="#EDB508" transform="scale(1.6 1.6)" d="M138.972 401.225C139.231 395.62 138.999 389.941 138.989 384.327L138.956 223.937C138.937 188.029 141.297 192.453 172.757 192.457L218.701 192.463C226.094 192.467 233.616 192.891 240.986 192.469L240.976 350.45C240.975 370.4 241.159 380.821 249.168 399.773C244.434 400.56 239.615 400.459 234.828 400.527L170.378 400.906C159.946 400.956 149.389 400.799 138.972 401.225Z"/>
	<path fill="#3683FC" transform="scale(1.6 1.6)" d="M420.539 78.7717C428.73 78.8129 448.646 75.5263 445.563 91.0917C444.319 97.3722 439.525 104.995 436.686 110.958L413.264 160.846C409.566 168.775 400.72 184.91 399.668 192.469L240.986 192.469C239.648 187.514 237.568 183 235.448 178.346C225.28 157.76 215.346 135.642 205.833 114.679C202.131 106.52 184.908 80.6733 204.853 78.8788C212.327 78.2063 220.24 78.752 227.772 78.7576L420.539 78.7717Z"/>
</svg>
