<?xml version="1.0" encoding="utf-8" ?>
<svg xmlns="http://www.w3.org/2000/svg" xmlns:xlink="http://www.w3.org/1999/xlink" width="1024" height="1024">
	<path fill="#FFF500" transform="scale(1.6 1.6)" d="M354.048 91.2753C372.163 91.4922 390.323 91.3283 408.441 91.2415C434.32 91.1175 425.916 88.2069 444.393 108.643L495.943 164.968C501.175 170.651 528.774 198.853 529.708 203.659C530.153 205.949 529.655 216.474 529.652 219.757L529.656 422.016C529.659 427.042 530.194 432.214 529.651 437.218C519.763 446.156 511.12 457 502.191 466.911L438.549 537.353C435.412 540.726 432.254 544.77 428.385 547.311C423.63 547.541 418.821 547.331 414.058 547.319L227.352 547.343C223.877 547.363 220.318 547.599 216.857 547.311C211.031 544.049 200.342 531.448 195.074 525.854L136.264 463.47C128.369 455.143 118.073 445.261 111.449 435.954C109.16 432.738 110.59 411.601 110.591 406.999L110.589 204.074C113.27 199.837 117.775 196.268 121.19 192.578L170.46 140.013C179.095 130.868 208.598 97.8454 217.941 91.7514L218.397 91.4497C218.489 91.3901 218.583 91.3334 218.676 91.2753C248.948 90.7675 283.028 90.1622 313.224 91.2753C317.048 95.4258 321.571 103.42 326.279 106.298C327.43 106.566 328.768 107.531 329.508 108.436C328.373 107.647 327.663 106.388 327.236 105.105C326.399 103.964 325.885 102.661 325.309 101.377C332.551 99.5918 346.361 99.9589 354.048 100.267C354.323 99.6614 354.207 99.6595 354.048 99.0487C353.37 96.6489 353.815 93.7304 354.048 91.2753ZM325.309 101.377C325.885 102.661 326.399 103.964 327.236 105.105C327.663 106.388 328.373 107.647 329.508 108.436C328.768 107.531 327.43 106.566 326.279 106.298L374.889 159.937C378.411 164.655 405.92 193.59 405.491 196.75C405.249 198.538 403.104 200.103 402.172 201.561C399.28 208.927 390.093 206.044 382.801 206.408C368.164 207.136 352.874 210.035 339.309 215.499C243.493 254.097 249.521 390.085 340.892 425.699C366.118 435.531 383.935 434.931 409.288 435.903C407.99 436.14 406.701 436.286 405.388 436.41L407.091 436.634L407.271 436.939L407.171 437.218C411.57 438.989 434.878 438.221 440.466 438.23C444.512 438.237 462.927 435.411 458.33 444.158C455.614 449.326 450.276 452.824 447.047 457.612C445.106 459.334 443.392 461.522 441.673 463.473L431.898 474.549L384.859 525.97C380.63 530.545 376.245 535.043 372.738 540.214C389.686 540.808 409.318 538.849 425.569 540.214C439.603 523.602 455.836 506.964 470.512 490.769L512.658 444.747C515.468 441.652 521.774 436.402 522.491 432.213C522.137 420.449 522.497 408.584 522.5 396.808L522.504 247.048C522.504 233.999 522.158 220.887 522.491 207.848C509.68 200.52 479.604 163.532 468.68 151.619C459.519 141.628 449.702 132.203 440.699 122.085C435.161 115.861 430.092 108.701 424.097 102.961C403.847 102.33 384.136 103.296 363.551 102.43C360.884 102.35 356.462 101.369 354.048 100.267C346.361 99.9589 332.551 99.5918 325.309 101.377ZM220.696 98.4342L129.438 194.53C125.781 198.357 121.445 202.063 118.332 206.336C118.77 246.442 118.338 286.607 118.339 326.72L118.131 420.653C118.099 424.509 118.388 428.356 118.332 432.213C121.342 438.332 135.81 452.352 141.43 458.439L192.851 513.142C197.52 518.018 216.77 541.645 222.825 540.214C221.672 536.302 193.494 509.066 189.511 504.905L139.731 451.993C123.303 434.451 122.202 440.483 122.296 418.869L122.311 207.848C124.844 204.331 128.212 201.596 131.194 198.485L201.33 125.938C225.607 100.947 216.68 102.94 249.723 102.954L282.527 102.978C287.698 102.978 292.88 103.04 298.049 102.927C307.85 102.711 309.323 101.536 316.097 110.056C316.742 109.408 316.864 108.914 317.119 108.063C314.362 105 311.81 101.012 308.647 98.4342C300.144 97.3402 291.523 98.2546 282.975 98.4086C264.528 98.7408 238.877 99.8052 220.696 98.4342ZM402.172 201.561C396.606 202.887 390.762 202.324 385.095 202.416C342.092 203.115 306.98 219.568 283.179 256.248C246.899 312.159 266.933 384.92 321.865 420.219C342.551 433.512 367.327 438.416 391.595 439.034C393.787 439.09 408.337 441.116 404.946 437.251C405.789 436.938 406.307 437.094 407.171 437.218L407.271 436.939L407.091 436.634L405.388 436.41C406.701 436.286 407.99 436.14 409.288 435.903C383.935 434.931 366.118 435.531 340.892 425.699C249.521 390.085 243.493 254.097 339.309 215.499C352.874 210.035 368.164 207.136 382.801 206.408C390.093 206.044 399.28 208.927 402.172 201.561ZM367.61 99.0487C365.553 100.108 360.861 99.4976 363.551 102.43C384.136 103.296 403.847 102.33 424.097 102.961C430.092 108.701 435.161 115.861 440.699 122.085C449.702 132.203 459.519 141.628 468.68 151.619C479.604 163.532 509.68 200.52 522.491 207.848C521.793 202.632 514.948 197.025 511.623 193.282C483.568 161.704 452.541 131.097 425.569 99.0487L367.61 99.0487Z"/>
	<path fill="#5ECBF0" transform="scale(1.6 1.6)" d="M354.048 99.0487C358.308 98.7203 363.394 98.431 367.61 99.0487C365.553 100.108 360.861 99.4976 363.551 102.43C360.884 102.35 356.462 101.369 354.048 100.267C354.323 99.6614 354.207 99.6595 354.048 99.0487Z"/>
	<path fill="#5ECBF0" transform="scale(1.6 1.6)" d="M383.947 188.321L384.173 187.836L379.982 182.182C381.757 183.41 383.344 185.146 384.444 186.998C386.001 189.621 383.957 182.835 383.947 182.799C387.494 186.849 390.669 191.19 394.134 195.304L389.35 195.304C387.528 192.904 385.486 190.97 383.947 188.321Z"/>
	<path fill="#5ECBF0" transform="scale(1.6 1.6)" d="M354.048 149.318C363.902 160.375 374.996 170.995 383.947 182.799C383.957 182.835 386.001 189.621 384.444 186.998C383.344 185.146 381.757 183.41 379.982 182.182L384.173 187.836L383.947 188.321C374.437 177.474 365.724 166.8 355.77 155.934L356.74 155.695C357.243 154.446 354.412 151.202 354.048 149.318Z"/>
	<path fill="#FC6362" transform="scale(1.6 1.6)" d="M325.309 101.377C332.551 99.5918 346.361 99.9589 354.048 100.267C356.462 101.369 360.884 102.35 363.551 102.43C384.136 103.296 403.847 102.33 424.097 102.961C430.092 108.701 435.161 115.861 440.699 122.085C449.702 132.203 459.519 141.628 468.68 151.619C479.604 163.532 509.68 200.52 522.491 207.848C522.158 220.887 522.504 233.999 522.504 247.048L522.5 396.808C522.497 408.584 522.137 420.449 522.491 432.213C521.774 436.402 515.468 441.652 512.658 444.747L470.512 490.769C455.836 506.964 439.603 523.602 425.569 540.214C409.318 538.849 389.686 540.808 372.738 540.214C376.245 535.043 380.63 530.545 384.859 525.97L431.898 474.549L441.673 463.473C443.392 461.522 445.106 459.334 447.047 457.612C450.276 452.824 455.614 449.326 458.33 444.158C462.927 435.411 444.512 438.237 440.466 438.23C434.878 438.221 411.57 438.989 407.171 437.218L407.271 436.939L407.091 436.634L405.388 436.41C406.701 436.286 407.99 436.14 409.288 435.903C383.935 434.931 366.118 435.531 340.892 425.699C249.521 390.085 243.493 254.097 339.309 215.499C352.874 210.035 368.164 207.136 382.801 206.408C390.093 206.044 399.28 208.927 402.172 201.561C403.104 200.103 405.249 198.538 405.491 196.75C405.92 193.59 378.411 164.655 374.889 159.937L326.279 106.298C327.43 106.566 328.768 107.531 329.508 108.436C328.373 107.647 327.663 106.388 327.236 105.105C326.399 103.964 325.885 102.661 325.309 101.377ZM431.229 362.189C428.888 358.952 420.773 350.48 421.072 346.9C425.388 338.931 429.49 338.177 432.253 326.093C431.471 323.237 430.094 319.813 427.455 318.201C421.411 314.506 397.178 316.255 389.35 319.435C388.341 319.981 387.766 320.59 387.125 321.542C385.495 320.912 382.296 319.962 380.661 320.779L379.769 320.779C379.879 320.348 379.794 319.877 379.769 319.435C381.551 318.783 381.655 317.231 382.554 315.772L382.711 315.523C389.07 312.075 396.428 305.501 402.831 301.329C406.059 299.226 411.972 297.055 414.339 294.675C415.375 297.688 416.947 297.212 419.711 296.706C422.833 291.449 421.476 285.295 419.711 279.824C421.895 281.175 430.679 288.756 431.788 282.485C432.082 280.819 431.141 279.388 430.213 278.106C423.263 271.275 415.592 266.717 407.171 262.013C412.137 262.575 410.483 265.95 413.298 262.583L414.65 262.481L414.921 262.093C413.163 260.696 410.865 260.244 409.288 258.57C405.551 256.482 400.991 255.192 396.859 254.18C366.441 246.729 334.231 256.518 318.438 285.155C287.859 340.603 339.649 400.377 397.265 383.467C408.993 380.025 424.413 372.786 431.229 362.189ZM430.213 278.106C431.141 279.388 432.082 280.819 431.788 282.485C430.679 288.756 421.895 281.175 419.711 279.824C421.476 285.295 422.833 291.449 419.711 296.706C419.041 297.364 418.456 298.078 417.859 298.802L418.063 299.104C427.392 301.441 432.294 286.638 435.029 279.824C434.168 278.048 433.275 276.338 432.253 274.65C428.623 273.096 429.131 275.439 430.213 278.106ZM327.236 105.105C327.663 106.388 328.373 107.647 329.508 108.436C328.768 107.531 327.43 106.566 326.279 106.298L374.889 159.937C374.66 155.586 333.57 111.307 327.236 105.105Z"/>
	<path fill="#FC6362" transform="scale(1.6 1.6)" d="M382.711 315.523C384.028 318.021 386.812 318.568 389.35 319.435C388.341 319.981 387.766 320.59 387.125 321.542C385.495 320.912 382.296 319.962 380.661 320.779L379.769 320.779C379.879 320.348 379.794 319.877 379.769 319.435C381.551 318.783 381.655 317.231 382.554 315.772L382.711 315.523Z"/>
	<path fill="#5ECBF0" transform="scale(1.6 1.6)" d="M409.288 258.57C416.94 261.33 426.773 268.605 432.253 274.65C428.623 273.096 429.131 275.439 430.213 278.106C423.263 271.275 415.592 266.717 407.171 262.013C412.137 262.575 410.483 265.95 413.298 262.583L414.65 262.481L414.921 262.093C413.163 260.696 410.865 260.244 409.288 258.57Z"/>
	<path fill="#5ECBF0" transform="scale(1.6 1.6)" d="M409.288 435.903L439.935 435.891C448.653 435.9 460.504 433.295 465.578 442.339C463.712 448.093 452.438 462.339 448.4 464.726C447.581 465.061 447.328 465.471 446.818 466.159L447.047 466.148C446.396 465.107 445.776 464.046 445.146 462.993L444.899 463.291C445.292 465.244 444.426 467.433 442.605 468.554L442.32 468.311L442.319 467.393C440.796 467.606 436.479 474.019 434.106 475.258L433.85 475.175C433.433 472.518 445.145 461.563 447.192 458.164L447.047 457.612C450.276 452.824 455.614 449.326 458.33 444.158C462.927 435.411 444.512 438.237 440.466 438.23C434.878 438.221 411.57 438.989 407.171 437.218L407.271 436.939L407.091 436.634L405.388 436.41C406.701 436.286 407.99 436.14 409.288 435.903Z"/>
	<path fill="#5ECBF0" transform="scale(1.6 1.6)" d="M522.491 432.213C521.774 436.402 515.468 441.652 512.658 444.747L470.512 490.769C455.836 506.964 439.603 523.602 425.569 540.214C409.318 538.849 389.686 540.808 372.738 540.214C376.245 535.043 380.63 530.545 384.859 525.97L431.898 474.549L441.673 463.473C443.392 461.522 445.106 459.334 447.047 457.612L447.192 458.164C445.145 461.563 433.433 472.518 433.85 475.175L434.106 475.258C436.479 474.019 440.796 467.606 442.319 467.393L442.32 468.311L442.605 468.554C444.426 467.433 445.292 465.244 444.899 463.291L445.146 462.993C445.776 464.046 446.396 465.107 447.047 466.148L446.818 466.159C447.328 465.471 447.581 465.061 448.4 464.726C446.596 467.365 444.056 469.832 441.89 472.183L396.937 521.781C392.146 527.097 386.154 532.186 382.711 538.49C386.51 538.721 419.582 537.719 421.802 536.727C424.244 535.636 436.148 520.469 438.91 517.415C452.956 501.887 467.622 486.814 482.029 471.612C492.35 460.72 510.056 440.216 522.491 432.213Z"/>
	<path fill="#FFF500" transform="scale(1.6 1.6)" d="M379.769 320.779L380.661 320.779C382.296 319.962 385.495 320.912 387.125 321.542C408.399 322.64 445.48 312.78 416.756 342.047C415.724 341.575 415.093 341.126 414.339 340.276C413.627 342.055 412.969 341.909 411.216 342.047C407.131 339.233 400.175 336.739 395.26 336.23C386.716 331.043 384.35 330.102 379.769 320.779ZM379.769 320.779C384.35 330.102 386.716 331.043 395.26 336.23C400.175 336.739 407.131 339.233 411.216 342.047C412.969 341.909 413.627 342.055 414.339 340.276C412.752 338.617 412.044 336.891 411.216 334.792C404.252 330.812 387.565 321.872 380.661 320.779L379.769 320.779Z"/>
	<path fill="#FFF500" transform="scale(1.6 1.6)" d="M419.711 349.406C422.082 351.789 425.558 355.033 426.997 358.042C429.919 364.156 405.957 375.454 401.499 377.299C348.903 399.068 296.801 346.202 319.53 292.908C335.14 256.305 372.876 247.271 407.171 262.013C415.592 266.717 423.263 271.275 430.213 278.106C431.141 279.388 432.082 280.819 431.788 282.485C430.679 288.756 421.895 281.175 419.711 279.824C417.566 277.441 414.08 274.161 411.216 276.812C391.79 261.773 360.836 261.359 342.589 278.324C308.277 310.224 327.673 370.388 375.256 371.453C395.381 371.903 405.885 362.55 419.711 349.406Z"/>
	<path fill="#FC6362" transform="scale(1.6 1.6)" d="M414.339 344.61C415.913 346.74 414.705 348.084 413.145 349.901C405.228 359.12 394.573 365.572 382.325 366.347C312.481 370.768 315.635 273.666 373.316 270.97C383.196 270.508 396.556 272.949 404.104 279.824C404.01 281.159 403.965 282.412 404.104 283.746C406.526 281.496 408.784 279.065 411.216 276.812C414.08 274.161 417.566 277.441 419.711 279.824C421.476 285.295 422.833 291.449 419.711 296.706C416.947 297.212 415.375 297.688 414.339 294.675C411.972 297.055 406.059 299.226 402.831 301.329C396.428 305.501 389.07 312.075 382.711 315.523L382.554 315.772C381.655 317.231 381.551 318.783 379.769 319.435C379.794 319.877 379.879 320.348 379.769 320.779C384.35 330.102 386.716 331.043 395.26 336.23C400.175 336.739 407.131 339.233 411.216 342.047C412.969 341.909 413.627 342.055 414.339 340.276C415.093 341.126 415.724 341.575 416.756 342.047C415.941 342.867 415.025 343.678 414.339 344.61ZM411.216 276.812C408.784 279.065 406.526 281.496 404.104 283.746C393.442 292.115 370.556 304.86 369.176 317.926C367.675 332.131 383.258 337.694 395.26 336.23C386.716 331.043 384.35 330.102 379.769 320.779C379.879 320.348 379.794 319.877 379.769 319.435C381.551 318.783 381.655 317.231 382.554 315.772L382.711 315.523C389.07 312.075 396.428 305.501 402.831 301.329C406.059 299.226 411.972 297.055 414.339 294.675C415.375 297.688 416.947 297.212 419.711 296.706C422.833 291.449 421.476 285.295 419.711 279.824C417.566 277.441 414.08 274.161 411.216 276.812Z"/>
	<path fill="#5ECBF0" transform="scale(1.6 1.6)" d="M414.339 340.276C415.093 341.126 415.724 341.575 416.756 342.047C415.941 342.867 415.025 343.678 414.339 344.61C413.401 343.627 412.3 342.858 411.216 342.047C412.969 341.909 413.627 342.055 414.339 340.276Z"/>
	<path fill="#FFF500" transform="scale(1.6 1.6)" d="M411.216 276.812C414.08 274.161 417.566 277.441 419.711 279.824C421.476 285.295 422.833 291.449 419.711 296.706C416.947 297.212 415.375 297.688 414.339 294.675C411.972 297.055 406.059 299.226 402.831 301.329C396.428 305.501 389.07 312.075 382.711 315.523L382.554 315.772C381.655 317.231 381.551 318.783 379.769 319.435C379.794 319.877 379.879 320.348 379.769 320.779C384.35 330.102 386.716 331.043 395.26 336.23C383.258 337.694 367.675 332.131 369.176 317.926C370.556 304.86 393.442 292.115 404.104 283.746C406.526 281.496 408.784 279.065 411.216 276.812ZM379.769 319.435C381.551 318.783 381.655 317.231 382.554 315.772L382.711 315.523C389.07 312.075 396.428 305.501 402.831 301.329C406.059 299.226 411.972 297.055 414.339 294.675C414.806 292.896 414.49 291.176 414.111 289.408L413.935 289.205L413.643 289.609C409.519 295.277 377.611 306.537 379.769 319.435Z"/>
	<path fill="#5ECBF0" transform="scale(1.6 1.6)" d="M122.311 207.848C124.844 204.331 128.212 201.596 131.194 198.485L201.33 125.938C225.607 100.947 216.68 102.94 249.723 102.954L282.527 102.978C287.698 102.978 292.88 103.04 298.049 102.927C307.85 102.711 309.323 101.536 316.097 110.056C316.742 109.408 316.864 108.914 317.119 108.063C326.268 118.432 336.679 128.235 344.951 139.313C348.069 142.554 351.04 145.974 354.048 149.318C354.412 151.202 357.243 154.446 356.74 155.695L355.77 155.934C365.724 166.8 374.437 177.474 383.947 188.321C385.486 190.97 387.528 192.904 389.35 195.304C357.181 198.404 337.561 196.785 308.83 218.191C280.156 239.554 260.792 270.351 257.747 306.588C257.158 313.607 257.442 320.608 257.42 327.637C258.59 355.675 277.27 391.695 297.76 410.534C300.508 413.06 303.694 415.357 306.304 417.988C309.497 420.385 312.568 422.645 316.097 424.536C339.645 445.378 385.966 445.317 415.021 445.323L436.818 445.326C440.668 445.328 444.556 445.503 448.4 445.309C443.389 449.619 439.034 454.553 434.605 459.44C417.283 478.551 400.794 498.347 383.081 517.127C376.066 524.564 368.126 531.648 362.468 540.214L237.795 540.222C232.855 540.225 227.747 540.497 222.825 540.214C221.672 536.302 193.494 509.066 189.511 504.905L139.731 451.993C123.303 434.451 122.202 440.483 122.296 418.869L122.311 207.848Z"/>
	<path fill="#5ECBF0" transform="scale(1.6 1.6)" d="M306.304 420.207C306.038 419.784 305.861 419.393 305.69 418.923L306.031 418.373L306.177 418.453L306.304 417.988C309.497 420.385 312.568 422.645 316.097 424.536C314.541 428.64 307.375 422.24 306.304 420.207Z"/>
	<path fill="#5ECBF0" transform="scale(1.6 1.6)" d="M334.792 131.603L335.186 131.052C338.783 133.54 340.696 137.498 344.951 139.313C348.069 142.554 351.04 145.974 354.048 149.318C354.412 151.202 357.243 154.446 356.74 155.695L355.77 155.934C348.914 147.706 341.597 139.891 334.792 131.603Z"/>
	<path fill="#5ECBF0" transform="scale(1.6 1.6)" d="M317.119 108.063C326.268 118.432 336.679 128.235 344.951 139.313C340.696 137.498 338.783 133.54 335.186 131.052L334.792 131.603C331.349 128.745 318.306 113.292 316.097 110.056C316.742 109.408 316.864 108.914 317.119 108.063Z"/>
	<path fill="#5ECBF0" transform="scale(1.6 1.6)" d="M306.304 420.207C281.916 405.753 258.063 361.727 255.942 334.551C255.761 332.24 255.027 328.828 257.42 327.637C258.59 355.675 277.27 391.695 297.76 410.534C300.508 413.06 303.694 415.357 306.304 417.988L306.177 418.453L306.031 418.373L305.69 418.923C305.861 419.393 306.038 419.784 306.304 420.207Z"/>
</svg>
