<?xml version="1.0" encoding="utf-8" ?>
<svg xmlns="http://www.w3.org/2000/svg" xmlns:xlink="http://www.w3.org/1999/xlink" width="1024" height="1024">
	<path fill="#ECF786" transform="scale(1.6 1.6)" d="M80.7874 238.377C91.658 239.039 83.3858 253.812 78.7719 257.417C67.9226 258.486 78.008 241.659 80.7874 238.377Z"/>
	<path fill="#ECF786" transform="scale(1.6 1.6)" d="M526.993 413.43C529.175 413.473 532.496 414.122 532.526 416.909C532.543 418.561 506.193 468.89 502.598 472.516C500.404 472.537 497.008 471.86 497.107 469.012C497.178 466.948 522.978 417.016 526.993 413.43Z"/>
	<path fill="#ECF786" transform="scale(1.6 1.6)" d="M118.444 152.668C120.483 152.966 123.883 154.116 123.692 156.708C123.425 160.348 96.8265 218.383 90.7127 223.413C79.3898 224.966 92.1986 206.618 94.3587 202.016C97.1842 195.996 115.217 156.102 118.444 152.668Z"/>
	<path fill="#ECF786" transform="scale(1.6 1.6)" d="M175.479 107.951C179.238 108.347 183.204 107.981 186.99 107.97L449.084 107.954C455.586 107.962 462.13 108.265 468.623 107.951C472.97 113.707 476.264 123.418 479.495 130.104L554.575 285.369C559.472 295.368 564.756 305.267 569.478 315.335C572.27 321.287 569.394 324.053 566.659 329.318C557.887 346.206 548.874 363.126 539.469 379.659C537.324 383.43 532.721 395.586 528.045 393.355C519.969 404.318 510.139 423.362 503.312 435.435L487.743 463.421C481.455 474.574 459.894 510.474 458.89 522.742L458.89 522.742C460.98 522.795 463.08 522.748 465.17 522.742C469.222 517.349 485.839 484.708 488.439 483.565C492.172 481.924 494.261 487.242 492.945 490.216C487.594 502.31 476.997 519.089 470.472 531.414C467.51 531.841 464.305 531.491 461.311 531.456L175.479 531.414C171.485 525.061 168.347 517.843 165.058 511.096L87.6632 357.736C81.3261 345.507 73.7128 332.37 68.8123 319.64C68.9661 318.231 119.002 218.677 125.852 204.956C135.164 186.304 145.161 167.984 154.454 149.324L167.469 122.928C169.844 118.12 172.128 112.142 175.479 107.951ZM179.532 116.004C164.921 146.452 149.482 176.38 134.26 206.513L77.4829 320.32C85.0628 336.104 94.0156 351.262 101.893 366.912L134.89 432.458C138.811 440.314 177.238 520.081 180.604 522.742C181.411 522.721 181.88 522.767 182.613 522.372L182.725 521.44L182.725 520.305C182.061 516.904 178.57 511.62 176.934 508.359L114.522 382.555C104.55 362.622 94.3004 342.79 84.9048 322.577C90.7368 312.856 95.5402 302.461 100.649 292.344L162.784 169.164C167.359 160.001 180.194 128.651 187.536 123.131C191.803 122.237 196.54 122.599 200.886 122.587L324.574 123.159C344.701 123.13 364.851 122.746 384.978 122.467C392.816 122.358 400.936 121.384 408.735 121.882C408.73 119.927 408.675 117.957 408.735 116.004L179.532 116.004ZM416.467 116.004L416.452 505.052C416.451 510.86 416.072 517.051 417.345 522.742C418.7 522.751 420.105 522.842 421.453 522.742L421.453 522.097C421.854 504.845 421.456 487.5 421.455 470.236L422.178 122.725C434.62 122.746 457.11 120.452 467.148 122.725C466.183 120.48 465.236 118.224 464.214 116.004L416.467 116.004Z"/>
	<path fill="#ECF786" transform="scale(1.6 1.6)" d="M182.725 521.44C206.577 522.591 230.298 522.747 254.165 522.75L355.859 522.73C361.568 522.72 367.642 522.265 373.299 522.742C378.467 522.739 406.967 521.282 408.735 522.742L408.599 523.465C406.773 523.967 394.139 523.611 391.3 523.639L348.363 523.766C341.195 523.768 333.86 524.101 326.709 523.753C319.531 524.208 312.053 523.758 304.838 523.758L259.367 523.764C234.834 523.767 204.826 525.29 180.604 522.742C181.411 522.721 181.88 522.767 182.613 522.372L182.725 521.44Z"/>
	<path fill="#ECF786" transform="scale(1.6 1.6)" d="M408.735 518.807C408.892 520.07 408.951 521.486 408.735 522.742C406.967 521.282 378.467 522.739 373.299 522.742C367.642 522.265 361.568 522.72 355.859 522.73L254.165 522.75C230.298 522.747 206.577 522.591 182.725 521.44L182.725 520.305L182.925 519.296C185.667 517.556 202.13 518.807 206.21 518.81L384.863 518.802C388.554 518.801 406.989 519.918 408.735 518.807Z"/>
	<path fill="#FC6262" transform="scale(1.6 1.6)" d="M422.178 122.725C434.62 122.746 457.11 120.452 467.148 122.725C470.794 126.995 476.901 142.189 479.893 148.375L545.229 283.273C551.221 295.431 557.944 307.662 562.82 320.32C555.454 336.364 544.943 353.92 536.471 369.833C533.123 376.121 528.22 382.115 526.993 389.243L528.045 393.355C519.969 404.318 510.139 423.362 503.312 435.435L487.743 463.421C481.455 474.574 459.894 510.474 458.89 522.742L458.89 522.742C446.419 522.826 433.924 522.875 421.453 522.742L421.453 522.097C421.854 504.845 421.456 487.5 421.455 470.236L422.178 122.725Z"/>
	<path fill="#FC6262" transform="scale(1.6 1.6)" d="M421.453 522.097C424.6 519.141 454.426 518.6 458.89 522.742L458.89 522.742C446.419 522.826 433.924 522.875 421.453 522.742L421.453 522.097Z"/>
	<path fill="#5DCAF0" transform="scale(1.6 1.6)" d="M187.536 123.131C191.803 122.237 196.54 122.599 200.886 122.587L324.574 123.159C344.701 123.13 364.851 122.746 384.978 122.467C392.816 122.358 400.936 121.384 408.735 121.882L408.709 508.072C408.7 511.525 408.274 515.407 408.735 518.807C406.989 519.918 388.554 518.801 384.863 518.802L206.21 518.81C202.13 518.807 185.667 517.556 182.925 519.296L182.725 520.305C182.061 516.904 178.57 511.62 176.934 508.359L114.522 382.555C104.55 362.622 94.3004 342.79 84.9048 322.577C90.7368 312.856 95.5402 302.461 100.649 292.344L162.784 169.164C167.359 160.001 180.194 128.651 187.536 123.131Z"/>
	<path fill="#5DCAF0" transform="scale(1.6 1.6)" d="M298.579 202.916C301.196 204.398 303.834 206.019 305.811 208.33C305.609 208.449 305.276 208.498 305.047 208.559L304.537 207.9L304.257 208.051L303.963 209.079L304.185 208.941L303.935 209.476L304.517 209.575L304.84 210.076L304.449 210.509C302.998 209.57 301.754 208.867 300.057 208.428L299.664 208.33C299.858 206.454 299.127 204.689 298.579 202.916Z"/>
	<path fill="#5DCAF0" transform="scale(1.6 1.6)" d="M228.356 243.294C233.973 241.754 232.194 238.268 232.886 233.411C237.124 203.636 271.659 189.131 298.579 202.916C299.127 204.689 299.858 206.454 299.664 208.33C279.066 194.203 244.678 209.972 239.168 233.421C238.029 238.267 239.167 249.954 232.631 251.273C229.149 251.976 224.076 247.962 222.57 244.981L222.663 244.387C224.529 243.704 226.484 243.856 228.356 243.294Z"/>
	<path fill="#5DCAF0" transform="scale(1.6 1.6)" d="M217.687 234.391C223.089 173.748 313.161 160.176 329.823 226.606C329.149 227.955 328.628 229.355 327.177 229.96L326.709 229.749C321.1 213.453 316.049 201.977 299.668 194.016C269.574 179.389 232.515 196.655 224.948 229.68C224.299 232.512 224.028 235.738 222.806 238.377C220.457 237.775 219.282 236.099 217.687 234.391Z"/>
	<path fill="#5DCAF0" transform="scale(1.6 1.6)" d="M321.722 418.954C322.649 417.738 325.521 418.781 326.56 419.423C333.07 423.447 324.212 439.8 321.552 444.214C295.748 487.027 231.684 475.284 220.33 426.273C218.797 419.657 219.48 417.083 226.223 415.665L226.264 416.135C227.554 431.865 226.489 440.174 241.397 452.935C271.393 478.612 319.005 457.226 321.722 418.954Z"/>
	<path fill="#ECF786" transform="scale(1.6 1.6)" d="M222.806 238.377C224.028 235.738 224.299 232.512 224.948 229.68C232.515 196.655 269.574 179.389 299.668 194.016C316.049 201.977 321.1 213.453 326.709 229.749C322.111 244.56 310.361 212.066 305.811 208.33C303.834 206.019 301.196 204.398 298.579 202.916C271.659 189.131 237.124 203.636 232.886 233.411C232.194 238.268 233.973 241.754 228.356 243.294C225.895 242.662 222.739 241.399 222.806 238.377Z"/>
	<path fill="#ECF786" transform="scale(1.6 1.6)" d="M226.223 415.665C228.812 414.662 231.023 414.604 233.764 414.662C234.225 415.597 234.654 416.578 235.209 417.458C238.066 420.511 238.863 425.368 240.582 429.097C248.195 445.603 260.814 451.68 278.261 453.385C280.025 453.557 282.458 453.16 284.053 453.92C299.662 451.434 311.37 433.463 314.16 418.954C315.976 418.665 320.31 417.382 321.722 418.954C319.005 457.226 271.393 478.612 241.397 452.935C226.489 440.174 227.554 431.865 226.264 416.135L226.223 415.665Z"/>
	<path fill="#5DCAF0" transform="scale(1.6 1.6)" d="M235.209 417.458C238.066 420.511 238.863 425.368 240.582 429.097C248.195 445.603 260.814 451.68 278.261 453.385C280.025 453.557 282.458 453.16 284.053 453.92C258.989 460.995 239.696 445.761 233.764 421.682L235.209 417.458Z"/>
	<path fill="#5DCAF0" transform="scale(1.6 1.6)" d="M257.253 264.996C264.06 259.96 285.118 260.065 293.038 261.206C304.866 262.911 313.797 279.996 291.071 280.755C274.199 281.319 257.224 278.759 243.217 290.544C229.337 302.222 230.124 318.668 230.182 335.198C230.225 347.129 229.046 359.695 235.224 370.421C253.89 402.827 292.937 379.425 300.237 390.886C303.231 395.589 299.023 398.326 295.297 400.527C295.397 398.455 295.379 396.424 295.297 394.352C282.869 393.127 270.401 395.769 257.892 393.314C241.441 390.086 228.228 375.32 224.758 359.158C222.829 350.178 223.277 315.921 225.118 306.719C226.386 300.379 229.939 294.254 234.025 289.313C257.084 261.435 296.133 281.545 297.43 269.67C298.256 262.109 286.266 264.942 281.775 264.97C273.603 265.021 265.423 264.85 257.253 264.996Z"/>
	<path fill="#ECF786" transform="scale(1.6 1.6)" d="M257.253 264.996C265.423 264.85 273.603 265.021 281.775 264.97C286.266 264.942 298.256 262.109 297.43 269.67C296.133 281.545 257.084 261.435 234.025 289.313C229.939 294.254 226.386 300.379 225.118 306.719C223.277 315.921 222.829 350.178 224.758 359.158C228.228 375.32 241.441 390.086 257.892 393.314C270.401 395.769 282.869 393.127 295.297 394.352C295.379 396.424 295.397 398.455 295.297 400.527C291.475 403.988 267.458 402.654 261.708 402.064C244.344 400.284 229.069 389.245 221.142 373.665C214.849 361.298 214.734 324.545 216.344 308.877C218.069 292.103 231.271 277.122 245.833 269.723C249.33 267.946 253.285 267.092 256.713 265.287L257.253 264.996Z"/>
</svg>
